<?xml version="1.0" encoding="UTF-8" standalone="no"?>
<!-- Created with Inkscape (http://www.inkscape.org/) -->

<svg
   width="24"
   height="24"
   viewBox="0 0 24 24"
   version="1.1"
   id="svg1"
   xml:space="preserve"
   inkscape:version="1.4 (86a8ad7, 2024-10-11)"
   sodipodi:docname="github.svg"
   xmlns:inkscape="http://www.inkscape.org/namespaces/inkscape"
   xmlns:sodipodi="http://sodipodi.sourceforge.net/DTD/sodipodi-0.dtd"
   xmlns="http://www.w3.org/2000/svg"
   xmlns:svg="http://www.w3.org/2000/svg"><sodipodi:namedview
     id="namedview1"
     pagecolor="#ffffff"
     bordercolor="#999999"
     borderopacity="1"
     inkscape:showpageshadow="2"
     inkscape:pageopacity="0"
     inkscape:pagecheckerboard="0"
     inkscape:deskcolor="#d1d1d1"
     inkscape:document-units="mm"
     inkscape:zoom="32"
     inkscape:cx="8.0625"
     inkscape:cy="12.546875"
     inkscape:window-width="2560"
     inkscape:window-height="1369"
     inkscape:window-x="2552"
     inkscape:window-y="-8"
     inkscape:window-maximized="1"
     inkscape:current-layer="layer1" /><defs
     id="defs1" /><g
     inkscape:label="Layer 1"
     inkscape:groupmode="layer"
     id="layer1"><path
       d="m 17.094997,23.198527 c 0,-0.574189 0.0282,-1.03167 0.0282,-1.550906 0,-1.637263 -0.541407,-2.671082 -1.168819,-3.216719 3.849066,-0.431081 7.868731,-1.89563 7.868731,-8.5592362 0,-1.8956295 -0.655609,-3.4465343 -1.767679,-4.6527164 0.170951,-0.4307288 0.770165,-2.2118028 -0.170952,-4.59561464 0,0 -1.453975,-0.45963191 -4.73273,1.78072134 C 15.783073,2.0307809 14.3009,1.8295159 12.846927,1.8295159 11.392866,1.8311427 9.945356,2.0243183 8.5417545,2.4040561 5.2633521,0.16370285 3.8093784,0.62333476 3.8093784,0.62333476 2.8682604,3.0071466 3.467121,4.7882206 3.6380738,5.2189494 2.5545543,6.4251315 1.8707459,7.9760363 1.8707459,9.8716658 c 0,6.6636062 4.0196655,8.1570582 7.8401804,8.5592362 -0.4846579,0.430729 -0.9411181,1.206181 -1.0835195,2.326358 -0.9978662,0.459632 -3.4782575,1.206181 -5.0175317,-1.435997 0,0 -0.9125666,-1.665814 -2.65169587,-1.780722 0,0 -1.68202737,0 -0.11420274,1.062723 0,0 1.14062041,0.516734 1.91043291,2.52727 0,0 1.0052122,3.109862 5.7953956,2.07569 z"
       id="path1-8"
       sodipodi:nodetypes="cccccccscccccccscsc"
       style="fill:none;stroke:#000000;stroke-width:0.353782;stroke-linecap:round;stroke-linejoin:round;stroke-dasharray:none;stroke-opacity:1" /></g></svg>
